<?xml version="1.0" standalone="no"?>
<!DOCTYPE svg PUBLIC "-//W3C//DTD SVG 20010904//EN"
 "http://www.w3.org/TR/2001/REC-SVG-20010904/DTD/svg10.dtd">
<svg version="1.0" xmlns="http://www.w3.org/2000/svg"
 width="44.000000pt" height="44.000000pt" viewBox="0 0 44.000000 44.000000"
 preserveAspectRatio="xMidYMid meet">

<g transform="translate(0.000000,44.000000) scale(0.100000,-0.100000)"
fill="#000000" stroke="none">
<path d="M195 360 c-70 -15 -114 -69 -78 -95 16 -12 21 -11 41 10 28 31 67 41
103 28 23 -9 31 -8 43 6 20 22 20 27 -1 36 -37 15 -79 21 -108 15z"/>
<path d="M230 216 c0 -22 5 -25 47 -28 l46 -3 -29 -35 c-16 -19 -24 -31 -17
-27 15 10 44 -3 37 -15 -4 -6 -1 -9 7 -6 20 6 49 68 49 106 l0 32 -70 0 c-68
0 -70 -1 -70 -24z"/>
<path d="M137 159 c4 -13 8 -18 11 -10 2 7 -1 18 -6 23 -8 8 -9 4 -5 -13z"/>
<path d="M119 117 c16 -21 63 -47 83 -47 7 1 -3 8 -22 16 -19 8 -43 23 -55 32
-19 16 -19 16 -6 -1z"/>
<path d="M213 113 c9 -2 25 -2 35 0 9 3 1 5 -18 5 -19 0 -27 -2 -17 -5z"/>
<path d="M255 80 c-28 -7 -28 -8 -5 -9 14 0 32 4 40 9 17 11 8 11 -35 0z"/>
</g>
</svg>
