<?xml version="1.0" standalone="no"?>
<!DOCTYPE svg PUBLIC "-//W3C//DTD SVG 20010904//EN"
 "http://www.w3.org/TR/2001/REC-SVG-20010904/DTD/svg10.dtd">
<svg version="1.0" xmlns="http://www.w3.org/2000/svg"
 width="474.000000pt" height="474.000000pt" viewBox="0 0 474.000000 474.000000"
 preserveAspectRatio="xMidYMid meet">

<g transform="translate(0.000000,474.000000) scale(0.100000,-0.100000)"
fill="#000000" stroke="none">
<path d="M2310 4013 c-501 -28 -959 -285 -1261 -708 -41 -58 -109 -177 -109
-192 0 -5 75 -68 167 -139 91 -71 194 -150 227 -177 34 -26 80 -61 104 -78 43
-30 43 -30 49 -9 10 40 72 160 114 222 90 134 242 265 396 342 194 97 498 114
716 41 83 -28 197 -92 269 -151 l53 -44 233 233 233 232 -58 53 c-171 158
-452 293 -717 347 -74 15 -297 36 -341 33 -11 -1 -45 -3 -75 -5z"/>
<path d="M2410 2350 l0 -310 438 0 c241 0 441 -2 444 -6 3 -3 -1 -26 -9 -52
-8 -26 -15 -60 -14 -77 0 -19 -3 -25 -9 -16 -5 10 -10 4 -15 -19 -4 -18 -23
-57 -42 -87 -18 -29 -31 -58 -28 -63 4 -6 2 -9 -3 -8 -5 2 -31 -22 -58 -52
-27 -30 -52 -56 -56 -58 -3 -2 -19 -14 -35 -28 -15 -13 -31 -24 -35 -24 -23 0
-2 -31 40 -61 62 -44 62 -44 103 -79 20 -16 41 -30 47 -30 6 0 15 -6 19 -12 6
-10 75 -68 138 -116 76 -57 145 -115 149 -125 3 -7 7 -3 11 10 4 13 13 23 19
23 13 0 90 79 127 130 13 19 32 43 42 54 9 11 17 23 17 27 0 4 6 14 14 21 24
24 93 153 88 166 -2 7 2 12 8 12 7 0 10 7 6 16 -3 8 -2 13 3 9 5 -3 19 21 30
52 12 32 26 67 31 78 4 11 11 31 14 45 3 14 17 66 31 115 14 50 23 101 20 113
-4 17 -2 22 6 16 9 -5 11 6 6 47 -3 30 -2 45 2 34 5 -12 10 8 14 59 14 157 3
441 -15 414 -5 -8 -6 -3 -2 15 3 15 3 38 0 52 l-6 25 -770 0 -770 0 0 -310z
m1537 18 c-2 -18 -4 -6 -4 27 0 33 2 48 4 33 2 -15 2 -42 0 -60z m0 -90 c-2
-13 -4 -5 -4 17 -1 22 1 32 4 23 2 -10 2 -28 0 -40z m15 -115 c-3 -16 -7 -22
-10 -15 -4 13 4 42 11 42 2 0 2 -12 -1 -27z m-645 -155 c-3 -7 -5 -2 -5 12 0
14 2 19 5 13 2 -7 2 -19 0 -25z m24 -4 c-5 -16 -10 -21 -10 -12 -1 18 10 51
15 45 2 -1 -1 -16 -5 -33z m348 -636 c-9 -16 -14 -19 -17 -9 -2 7 2 17 9 22
20 13 21 11 8 -13z m-119 -151 c0 -2 -12 -14 -27 -28 l-28 -24 24 28 c23 25
31 32 31 24z"/>
<path d="M1100 1750 c-9 -6 -10 -10 -3 -10 6 0 15 5 18 10 8 12 4 12 -15 0z"/>
<path d="M1790 1586 c0 -2 8 -10 18 -17 15 -13 16 -12 3 4 -13 16 -21 21 -21
13z"/>
<path d="M1060 1426 c0 -2 8 -10 18 -17 15 -13 16 -12 3 4 -13 16 -21 21 -21
13z"/>
<path d="M1141 1323 c7 -12 15 -20 18 -17 3 2 -3 12 -13 22 -17 16 -18 16 -5
-5z"/>
<path d="M1429 1048 c7 -10 19 -14 28 -11 12 5 14 3 8 -7 -5 -9 -4 -11 4 -6
15 9 3 29 -14 22 -7 -2 -19 1 -26 7 -11 10 -11 9 0 -5z"/>
<path d="M3230 966 c0 -2 7 -7 16 -10 8 -3 12 -2 9 4 -6 10 -25 14 -25 6z"/>
</g>
</svg>
