<?xml version="1.0" standalone="no"?>
<!DOCTYPE svg PUBLIC "-//W3C//DTD SVG 20010904//EN"
 "http://www.w3.org/TR/2001/REC-SVG-20010904/DTD/svg10.dtd">
<svg version="1.0" xmlns="http://www.w3.org/2000/svg"
 width="24.000000pt" height="24.000000pt" viewBox="0 0 24.000000 24.000000"
 preserveAspectRatio="xMidYMid meet">

<g transform="translate(0.000000,24.000000) scale(0.100000,-0.100000)"
fill="#000000" stroke="none">
<path d="M65 220 c-85 -55 -86 -138 0 -192 l30 -19 -48 3 c-26 2 -47 0 -47 -4
0 -5 55 -7 123 -6 79 0 106 3 77 7 -38 5 -41 8 -23 14 36 13 63 55 63 99 0 51
-11 71 -55 97 -44 26 -80 26 -120 1z m114 -14 c40 -21 61 -77 45 -119 -4 -12
-9 -11 -27 7 -31 31 -122 29 -148 -3 -14 -18 -18 -18 -23 -5 -3 9 -6 27 -6 40
0 73 87 117 159 80z"/>
<path d="M98 199 c-10 -5 -18 -20 -18 -33 0 -53 67 -62 85 -13 8 24 6 31 -10
43 -22 16 -34 17 -57 3z"/>
</g>
</svg>
