<?xml version="1.0" standalone="no"?>
<!DOCTYPE svg PUBLIC "-//W3C//DTD SVG 20010904//EN"
 "http://www.w3.org/TR/2001/REC-SVG-20010904/DTD/svg10.dtd">
<svg version="1.0" xmlns="http://www.w3.org/2000/svg"
 width="1200.000000pt" height="673.000000pt" viewBox="0 0 1200.000000 673.000000"
 preserveAspectRatio="xMidYMid meet">

<g transform="translate(0.000000,673.000000) scale(0.100000,-0.100000)"
fill="#000000" stroke="none">
<path d="M0 3365 l0 -3365 6000 0 6000 0 0 3365 0 3365 -6000 0 -6000 0 0
-3365z m3200 2770 c18 -9 32 -26 36 -43 12 -55 23 -88 49 -151 44 -104 20
-155 -63 -138 -15 3 -93 37 -174 76 -230 110 -275 177 -169 248 31 21 45 23
163 23 96 0 137 -4 158 -15z m5148 -91 c7 -14 9 -36 6 -48 -3 -14 5 -50 20
-88 34 -84 33 -109 -5 -153 -42 -47 -185 -125 -231 -125 -54 0 -80 26 -80 82
-1 63 31 111 121 180 75 57 81 65 88 118 5 42 19 60 48 60 14 0 26 -9 33 -26z
m-3657 -496 c12 -45 -2 -134 -39 -240 -13 -40 -14 -55 -4 -98 20 -87 21 -86
-61 -106 -73 -17 -74 -17 -133 7 -52 20 -77 23 -209 24 -192 2 -227 15 -211
81 10 40 93 121 152 149 65 31 155 41 239 27 92 -15 96 -12 188 137 20 33 44
61 52 61 8 0 19 -17 26 -42z m3878 -82 c6 -7 16 -39 22 -71 6 -32 15 -69 20
-82 12 -33 -5 -63 -36 -63 -22 0 -25 5 -25 34 0 19 -5 38 -10 41 -6 4 -31 -5
-55 -20 -75 -43 -86 -12 -29 75 33 51 80 100 95 100 4 0 12 -6 18 -14z m-4793
-204 c12 -9 36 -39 54 -66 25 -37 31 -53 23 -65 -17 -27 -59 -24 -125 8 -34
17 -74 31 -89 31 -43 0 -86 19 -97 44 -18 41 -1 51 94 53 48 2 90 5 92 8 10 9
27 5 48 -13z m4591 -19 c7 -19 -54 -79 -165 -163 -59 -44 -145 -109 -192 -145
-113 -87 -178 -118 -256 -123 -63 -4 -324 12 -383 24 -72 15 -19 22 177 26
242 5 285 15 422 99 47 28 99 59 115 69 17 9 78 65 136 125 102 103 135 123
146 88z m-3957 -238 c17 -21 -2 -65 -29 -65 -11 0 -26 -3 -34 -6 -9 -3 -25 4
-37 16 l-22 22 23 24 c26 28 79 33 99 9z m-2137 -31 c31 -31 44 -79 27 -99
-20 -24 -73 -18 -104 10 -29 27 -33 60 -10 93 20 29 55 28 87 -4z m4440 11
c55 -23 240 -75 325 -91 42 -8 84 -22 92 -30 14 -15 5 -16 -100 -11 -120 6
-222 28 -338 74 -81 32 -89 38 -72 58 16 19 48 19 93 0z m753 -47 c-12 -20
-41 -24 -51 -8 -8 13 14 42 26 34 5 -3 9 0 9 6 0 7 5 6 14 -2 10 -10 11 -17 2
-30z m1478 -90 c8 -13 18 -35 21 -49 5 -22 2 -27 -17 -33 -13 -3 -34 -6 -47
-6 -20 0 -22 3 -13 12 7 7 12 24 12 39 0 59 19 75 44 37z m-2299 -17 c3 -5 -7
-19 -22 -31 -25 -19 -28 -20 -31 -5 -7 31 37 61 53 36z m3479 -43 c25 -41 -81
-131 -126 -107 -27 14 -32 35 -18 68 22 54 118 79 144 39z m-2477 -19 c50 -9
63 -15 61 -27 -2 -13 -14 -15 -57 -13 -48 2 -200 36 -210 47 -9 9 145 3 206
-7z m-1971 -50 c20 -19 42 -79 36 -100 -2 -9 53 -1 111 16 73 22 155 19 195
-5 40 -25 66 -79 53 -112 -19 -49 -45 -61 -159 -70 -130 -11 -157 -4 -178 49
-30 76 -35 83 -56 72 -29 -16 -116 -13 -142 5 -13 8 -29 31 -36 51 -22 66 38
130 113 121 22 -2 50 -14 63 -27z m-2592 -51 c8 -24 26 -86 40 -140 41 -157
53 -176 143 -223 43 -22 88 -50 100 -63 14 -15 44 -28 86 -37 106 -22 236 -90
214 -112 -20 -19 -262 72 -274 103 -3 8 -19 14 -35 14 -53 0 -310 126 -329
161 -9 18 4 292 16 322 11 27 22 20 39 -25z m3276 -17 c0 -5 -27 -60 -59 -122
-64 -122 -139 -217 -242 -309 -78 -69 -112 -86 -129 -64 -10 11 8 35 101 132
117 122 227 242 241 265 4 6 8 21 8 33 0 25 43 74 65 74 8 0 15 -4 15 -9z
m-1752 -36 c7 -48 -133 -124 -205 -110 -43 8 -42 18 6 40 21 9 65 35 97 56 63
42 97 47 102 14z m57 -172 c118 -35 211 -110 278 -224 46 -79 49 -111 3 -44
-47 69 -66 79 -125 65 -42 -10 -54 -9 -102 11 -44 19 -71 22 -149 21 -54 -1
-129 6 -175 15 -115 23 -138 22 -190 -16 -62 -45 -56 -22 13 47 85 85 177 128
312 145 34 5 75 -1 135 -20z m3251 -293 c3 -248 -10 -190 -20 90 -4 137 -3
170 6 150 7 -16 12 -103 14 -240z m-5130 225 c53 -15 96 -53 113 -97 8 -22 6
-31 -8 -49 -25 -31 -69 -29 -156 7 -108 46 -135 107 -62 139 41 18 53 18 113
0z m-1747 -144 c46 -24 91 -78 91 -109 0 -45 -71 -54 -165 -22 -75 26 -105 53
-105 96 0 66 85 82 179 35z m7681 -36 c30 -9 60 -22 65 -27 7 -8 4 -9 -10 -4
-11 4 -48 10 -83 13 -54 5 -67 3 -92 -16 -20 -14 -46 -22 -82 -23 l-53 -2 48
-3 c39 -3 48 -7 45 -21 -2 -12 -24 -22 -71 -33 -38 -10 -95 -27 -127 -39 -65
-24 -93 -21 -88 9 2 11 0 20 -4 21 -5 0 -8 -1 -7 -2 0 -2 -18 -23 -42 -48 -23
-25 -55 -63 -70 -84 -16 -21 -29 -33 -29 -26 0 23 42 83 99 145 l56 60 -54
-50 c-44 -42 -141 -171 -141 -189 0 -2 -5 -17 -11 -33 -6 -15 -9 -28 -7 -29 2
0 -4 -9 -12 -19 -8 -10 -18 -43 -22 -74 -6 -49 -6 -46 -3 19 9 217 200 430
420 470 68 12 209 4 275 -15z m-5630 -60 c25 -30 -21 -128 -51 -110 -11 8 -7
94 6 115 9 15 31 12 45 -5z m2626 -12 c51 -24 65 -50 40 -69 -11 -8 -29 -11
-40 -8 -35 10 -91 60 -94 84 -3 21 -1 22 26 17 17 -4 47 -14 68 -24z m1092 1
c26 -18 30 -65 6 -85 -24 -20 -98 8 -102 39 -4 28 12 49 41 55 12 2 24 5 27 6
3 0 16 -6 28 -15z m-2191 -35 c20 -12 21 -15 6 -42 -13 -26 -18 -28 -46 -23
-18 4 -53 10 -79 13 -27 3 -48 7 -48 8 0 1 5 17 11 35 l12 33 61 -5 c34 -3 72
-11 83 -19z m4810 -86 c65 -89 67 -92 44 -86 -10 2 -28 23 -41 46 -13 23 -32
57 -42 75 -32 52 -14 37 39 -35z m-5528 35 c83 -27 102 -42 80 -63 -14 -14
-22 -12 -85 13 -38 16 -79 35 -92 43 -55 35 1 39 97 7z m4363 -22 c3 -16 -11
-47 -49 -105 -30 -44 -58 -81 -62 -81 -16 0 -20 43 -7 74 13 31 96 135 107
136 4 0 9 -11 11 -24z m2533 -42 c28 -29 4 -74 -56 -105 -51 -25 -75 -24 -95
6 -15 23 -15 27 1 51 17 26 85 63 117 64 9 0 24 -7 33 -16z m-4607 -82 c3 -18
-6 -26 -45 -43 -142 -61 -303 -64 -260 -5 8 11 42 22 102 31 50 8 110 21 135
29 55 17 64 15 68 -12z m-434 -74 c20 -33 -7 -43 -122 -43 -173 0 -192 27 -35
50 109 16 143 15 157 -7z m2920 -14 c19 -7 20 -13 6 -48 -9 -25 -10 -25 -102
-19 -51 3 -94 7 -96 8 -2 2 4 20 13 40 l15 38 74 -6 c40 -4 80 -9 90 -13z
m-5824 -88 c0 -39 -15 -56 -51 -56 -60 0 -59 53 3 83 40 19 48 15 48 -27z
m4675 9 c29 -29 31 -47 8 -86 -19 -31 -76 -59 -123 -59 -97 0 -123 90 -43 145
52 35 124 35 158 0z m-2411 6 c9 -14 -16 -21 -116 -34 -36 -4 -17 19 24 30 54
14 85 16 92 4z m2830 -159 c4 -70 2 -93 -3 -67 -12 57 -22 237 -11 202 5 -16
11 -77 14 -135z m996 150 c0 -5 -13 -21 -30 -37 -35 -33 -42 -14 -8 22 22 23
38 30 38 15z m-3100 -38 c17 -4 34 -13 37 -20 7 -18 -66 -90 -99 -98 -15 -3
-44 -21 -65 -39 l-36 -32 6 34 c11 55 32 79 61 74 34 -7 48 24 20 44 -19 14
-19 14 0 29 22 16 30 17 76 8z m-1045 -33 c-18 -17 -70 -18 -60 -1 3 6 20 10
38 10 19 0 27 -4 22 -9z m25 -56 c0 -3 -17 -16 -38 -29 -50 -31 -163 -66 -215
-66 l-42 0 26 26 c22 21 47 30 135 46 60 10 110 21 113 23 6 7 21 6 21 0z
m674 -17 c54 -24 46 -50 -42 -151 -63 -70 -108 -136 -128 -182 -19 -46 -34
-44 -34 5 0 47 19 105 68 208 63 134 78 147 136 120z m4190 -123 c4 -14 4 -30
1 -35 -4 -6 1 -10 9 -10 9 0 16 -4 16 -10 0 -11 -72 -14 -82 -4 -4 3 2 14 13
25 10 10 19 28 19 39 0 29 17 25 24 -5z m-4174 -20 c0 -8 -7 -15 -15 -15 -16
0 -20 12 -8 23 11 12 23 8 23 -8z m4413 -94 c12 -21 14 -31 6 -31 -18 0 -84
43 -72 47 5 2 8 16 5 31 l-5 27 24 -22 c13 -12 32 -36 42 -52z m-5692 -38
c-39 -61 -70 -97 -76 -91 -3 2 18 37 46 77 56 79 81 91 30 14z m3750 -48 c6
-41 12 -78 13 -82 0 -5 -9 -9 -21 -11 -22 -3 -23 -1 -23 82 0 47 4 86 9 86 5
0 15 -34 22 -75z m1561 35 c56 -17 109 -52 97 -64 -10 -10 -185 27 -196 42 -7
9 -13 13 -13 10 0 -4 -3 -13 -6 -22 -4 -12 0 -16 16 -16 23 0 134 -30 128 -35
-2 -1 -41 1 -87 4 l-84 7 -36 -46 c-20 -25 -44 -57 -53 -70 l-17 -25 0 28 c-1
15 4 27 9 27 6 0 10 7 10 15 0 8 3 15 8 15 14 0 33 53 22 64 -15 15 -12 36 4
30 8 -3 17 -1 21 5 3 6 14 11 24 11 10 0 26 9 36 20 23 25 37 25 117 0z
m-7479 -50 c33 -36 31 -72 -4 -102 -19 -16 -24 -16 -57 -2 -70 29 -105 82 -81
125 9 19 18 21 62 16 41 -4 56 -10 80 -37z m5752 -78 c-6 -46 -5 -51 25 -75
17 -15 28 -32 24 -38 -9 -15 -109 -59 -135 -59 -11 0 -22 7 -26 16 -4 11 -10
7 -25 -18 -22 -37 -78 -98 -89 -98 -4 0 -13 16 -20 35 -9 23 -19 35 -31 35
-26 0 -72 -76 -105 -174 -22 -64 -28 -75 -31 -53 -4 35 32 146 70 217 l30 55
-33 -30 c-19 -16 0 5 41 48 74 77 152 132 240 168 69 28 73 26 65 -29z m1713
22 c32 -9 27 -20 -10 -23 -18 0 -40 -2 -48 -3 -8 -1 -30 0 -49 0 -28 2 -32 4
-21 17 13 15 84 20 128 9z m-5864 -23 c12 -13 16 -32 14 -62 -2 -36 -7 -44
-23 -44 -13 0 -26 13 -38 38 -18 35 -18 39 -3 62 20 30 28 31 50 6z m1629 -33
c7 -20 -30 -187 -48 -214 -8 -13 -24 -24 -35 -24 -20 0 -63 -79 -94 -177 -22
-66 -44 -94 -114 -142 -112 -75 -319 -195 -429 -248 -122 -58 -390 -150 -548
-189 -108 -26 -320 -50 -366 -40 l-29 6 6 -43 c11 -70 28 -93 79 -106 43 -11
62 -31 30 -31 -35 0 -10 -18 56 -39 l71 -23 71 43 c526 309 938 489 1120 489
72 0 257 -95 457 -235 25 -17 99 -69 165 -115 406 -284 587 -430 530 -430 -19
0 -19 -2 7 -47 43 -72 89 -125 166 -190 140 -117 262 -159 442 -150 156 7 195
22 259 102 65 81 107 110 128 89 24 -24 -22 -73 -144 -154 -60 -40 -97 -69
-83 -65 51 14 213 130 270 193 102 113 178 271 198 412 l10 65 1 -62 c2 -126
-80 -310 -192 -429 -154 -166 -370 -252 -564 -226 -177 24 -294 83 -423 212
-90 90 -143 171 -185 281 -14 36 -38 77 -53 92 l-27 26 -42 -64 c-24 -34 -45
-71 -48 -82 -5 -16 -4 -16 7 2 26 39 80 85 91 78 12 -8 17 -9 37 -12 6 0 10
-11 10 -23 0 -46 108 -214 197 -305 82 -84 253 -185 378 -223 49 -15 67 -30
37 -30 -15 0 -20 -5 -16 -15 4 -8 1 -15 -5 -15 -6 0 -11 -8 -11 -19 0 -11 -9
-21 -22 -25 -18 -5 -20 -8 -9 -15 9 -6 10 -11 2 -15 -6 -4 -11 -17 -11 -29 0
-18 -2 -19 -10 -7 -6 9 -10 10 -10 3 0 -21 -71 -5 -159 37 -136 65 -275 163
-389 273 -115 112 -140 154 -143 236 -3 62 -8 58 -58 -40 -61 -119 -82 -100
-35 32 24 66 75 156 144 254 22 31 26 43 17 54 -9 11 -15 9 -32 -11 -66 -78
-106 -121 -100 -108 5 8 17 26 29 39 17 20 14 19 -19 -6 -52 -39 -79 -45 -107
-24 -36 28 -59 34 -56 14 2 -11 -8 -19 -32 -26 -19 -5 -42 -14 -50 -22 -8 -7
-26 -18 -39 -25 -32 -17 -41 -1 -34 65 3 31 1 61 -6 74 -20 36 -4 40 74 15 41
-13 82 -21 91 -17 11 4 27 -6 50 -33 l33 -39 56 59 c87 92 88 85 -7 159 -173
134 -421 291 -592 373 -87 42 -107 48 -181 52 -93 5 -219 -22 -368 -80 -141
-54 -394 -189 -593 -315 -104 -67 -197 -125 -206 -128 -9 -4 -52 6 -95 21 -54
18 -106 28 -169 32 -103 5 -137 -3 -223 -54 -212 -124 -449 -104 -610 54 -32
31 -66 72 -75 91 -14 26 -1 16 58 -43 55 -56 94 -86 143 -109 64 -30 74 -32
183 -32 97 0 124 4 173 24 76 30 181 128 244 227 25 41 48 72 51 70 2 -3 -13
-34 -33 -71 l-38 -66 34 3 c30 3 37 10 60 55 15 28 32 67 38 85 9 25 14 29 20
19 10 -15 30 -14 221 14 163 23 196 33 197 57 2 22 30 58 45 58 5 0 7 -14 4
-31 l-5 -32 69 7 c135 12 389 122 668 289 185 110 214 135 240 207 11 30 42
102 67 160 26 58 59 136 72 175 37 103 53 126 66 93z m277 -14 c16 -19 -1 -38
-42 -48 -37 -8 -45 10 -17 40 26 28 41 30 59 8z m3864 5 l25 -12 -30 -30 c-16
-16 -31 -28 -33 -26 -11 12 -26 50 -26 63 0 19 29 21 64 5z m-3794 -14 c16
-19 0 -90 -20 -90 -20 0 -34 52 -21 81 12 28 23 30 41 9z m3723 -36 c4 -16 3
-18 -9 -8 -7 6 -11 15 -8 20 8 13 11 11 17 -12z m416 -118 c24 -15 4 -27 -38
-23 -27 3 -41 9 -41 18 0 16 56 19 79 5z m-4869 -23 c0 -22 -79 -86 -126 -102
-27 -9 -79 -19 -117 -23 -64 -6 -69 -5 -65 13 2 14 37 33 133 71 130 53 175
63 175 41z m2490 -22 c0 -2 -8 -10 -17 -17 -16 -13 -17 -12 -4 4 13 16 21 21
21 13z m-5259 -55 c13 -43 6 -97 -15 -127 -13 -17 -15 -16 -25 23 -6 22 -18
46 -26 53 -18 15 -20 61 -3 78 7 7 22 12 35 12 17 0 25 -9 34 -39z m2024 8
c17 -6 66 -17 110 -25 43 -7 86 -21 94 -29 14 -13 13 -17 -2 -32 -39 -39 -239
-4 -308 54 l-32 27 29 12 c29 13 53 11 109 -7z m4883 4 c54 -6 72 -17 54 -35
-12 -12 -151 -1 -173 13 -20 14 19 42 46 34 11 -4 44 -9 73 -12z m-5269 -29
c24 -8 -35 -60 -154 -139 -60 -39 -132 -84 -158 -100 l-48 -28 -26 24 c-14 13
-23 18 -19 11 12 -21 17 -86 7 -100 -19 -30 -146 33 -233 116 -33 31 -36 32
-31 12 6 -22 5 -23 -42 -17 -56 8 -65 14 -45 28 11 8 4 9 -27 6 -52 -6 -146
-48 -197 -89 -30 -24 -36 -26 -27 -10 6 11 11 31 11 45 0 33 10 40 32 20 16
-14 20 -15 36 -1 38 33 150 78 222 89 98 15 193 0 290 -47 40 -19 79 -34 89
-34 20 0 105 42 140 69 l25 19 -27 -5 c-35 -7 -57 12 -57 47 0 30 15 40 61 40
22 0 32 6 39 24 5 13 15 26 22 28 14 5 94 -1 117 -8z m4300 -39 c10 -10 11
-20 4 -42 l-10 -28 -79 3 c-43 2 -83 8 -88 12 -4 5 -3 25 4 45 l12 37 72 -7
c39 -3 77 -12 85 -20z m1224 -71 l17 -49 -30 33 c-16 18 -30 42 -30 53 0 36
24 15 43 -37z m-4132 -61 c-13 -46 -76 -149 -84 -136 -3 5 5 32 19 60 13 29
34 73 46 100 24 54 36 39 19 -24z m2019 49 c0 -13 -100 -68 -175 -96 -38 -15
-90 -36 -114 -47 l-44 -20 23 -24 c24 -25 138 -85 163 -85 11 0 15 -7 12 -21
-5 -27 -13 -35 -22 -24 -5 4 -2 10 5 12 20 8 3 23 -26 23 -21 0 -24 -2 -12
-10 8 -5 10 -10 4 -10 -6 0 -14 3 -18 7 -4 4 -20 8 -36 9 l-28 2 26 -24 c15
-13 20 -22 11 -18 -18 6 -114 -22 -221 -63 -70 -27 -75 -27 -241 -6 -43 5 -47
8 -41 27 7 21 6 21 -15 2 -14 -13 -18 -22 -10 -27 8 -5 8 -8 0 -13 -6 -4 -11
-2 -11 5 0 8 -4 8 -15 -1 -22 -18 -18 -33 6 -27 17 4 18 3 8 -9 -9 -11 -15
-12 -26 -2 -11 9 -23 9 -51 -1 -53 -19 -84 -40 -76 -53 4 -6 3 -8 -3 -5 -6 4
-19 -4 -30 -16 -28 -30 -105 -157 -95 -157 4 0 0 -5 -8 -10 -13 -9 -13 -11 0
-20 17 -11 48 -4 72 17 27 24 50 9 46 -29 -3 -29 -8 -34 -40 -42 -45 -11 -171
11 -243 43 -63 28 -52 36 23 17 91 -24 107 -22 108 14 1 30 1 31 -20 13 -12
-10 -10 -6 4 8 30 31 65 89 52 89 -5 0 -19 -12 -33 -26 -13 -14 -36 -32 -51
-40 -46 -24 -44 -16 3 15 55 36 116 100 158 168 83 132 265 261 421 297 235
54 337 82 440 120 63 24 116 44 118 45 1 0 2 -3 2 -7z m2224 -78 c41 -47 38
-58 -5 -21 -27 24 -51 60 -62 92 -6 17 -4 16 11 -4 9 -12 34 -43 56 -67z m-29
-24 c7 -12 6 -13 -7 -3 -8 7 -18 10 -21 6 -9 -9 12 -33 30 -33 7 0 16 -7 19
-15 4 -8 11 -12 17 -8 5 3 7 1 3 -5 -3 -5 0 -13 6 -15 8 -4 9 -6 2 -6 -16 -1
-114 92 -114 109 0 9 5 8 20 -5 11 -10 20 -13 20 -8 0 6 -7 16 -15 23 -8 7
-15 19 -15 28 0 13 25 -18 55 -68z m-5467 58 c31 -31 -6 -98 -55 -98 -33 0
-38 22 -13 69 21 42 45 52 68 29z m-328 -98 c-25 -22 -49 -40 -54 -40 -11 0
-11 0 44 44 60 47 66 45 10 -4z m3478 -37 l-10 -42 -35 26 -35 27 44 17 c23 9
44 16 45 15 1 -1 -3 -20 -9 -43z m2412 10 c0 -7 -39 17 -46 28 -3 6 5 3 20 -6
14 -10 26 -19 26 -22z m-5821 -14 c-12 -17 -35 -54 -51 -83 -17 -28 -27 -43
-24 -33 3 10 6 24 6 31 0 12 79 116 87 116 3 0 -6 -14 -18 -31z m-1564 -25
c18 -63 43 -92 122 -145 40 -27 73 -52 73 -54 0 -8 -86 22 -144 51 -32 15 -76
44 -99 64 l-40 36 18 34 c37 73 52 76 70 14z m5266 25 c16 -16 19 -30 17 -72
-3 -51 -4 -52 -53 -78 -78 -41 -89 -43 -121 -15 -28 24 -28 25 -16 72 7 27 24
63 38 81 22 29 31 33 70 33 31 0 50 -6 65 -21z m-3921 -21 c0 -5 -7 -3 -15 6
-8 8 -15 18 -15 22 0 3 7 1 15 -6 8 -7 15 -17 15 -22z m6080 22 c8 -5 11 -10
5 -10 -5 0 -17 5 -25 10 -8 5 -10 10 -5 10 6 0 17 -5 25 -10z m-35 -30 c3 -5
1 -10 -4 -10 -6 0 -11 5 -11 10 0 6 2 10 4 10 3 0 8 -4 11 -10z m2285 -14 c0
-16 -18 -31 -27 -22 -8 8 5 36 17 36 5 0 10 -6 10 -14z m-2217 -58 c9 -31 2
-33 -11 -3 -6 14 -8 25 -3 25 5 0 11 -10 14 -22z m-2365 -69 c19 -30 -6 -21
-26 9 -12 19 -12 22 -1 17 8 -3 20 -15 27 -26z m-3981 5 c26 -7 27 -12 14 -47
-9 -23 -13 -24 -53 -17 -24 5 -60 11 -80 15 -36 6 -37 6 -26 37 11 30 11 30
66 24 31 -4 66 -9 79 -12z m4122 -120 c12 -26 6 -48 -7 -28 -4 6 -14 13 -23
16 -9 4 -21 20 -27 36 l-10 30 27 -14 c15 -8 33 -26 40 -40z m-3899 33 c0 -2
-12 -14 -27 -28 l-28 -24 24 28 c23 25 31 32 31 24z m177 -59 c-3 -8 -6 -5 -6
6 -1 11 2 17 5 13 3 -3 4 -12 1 -19z m-1547 -8 c0 -5 -20 -23 -45 -40 -52 -36
-59 -26 -13 19 31 30 58 40 58 21z m1597 -22 c-3 -8 -6 -5 -6 6 -1 11 2 17 5
13 3 -3 4 -12 1 -19z m5627 0 c-18 -59 -150 -218 -181 -218 -22 0 -16 10 50
79 34 37 78 88 97 114 40 53 44 56 34 25z m-5716 -49 c4 -24 3 -24 -12 -4 -19
24 -20 38 -3 33 6 -3 13 -15 15 -29z m3756 -16 c-3 -10 -14 -29 -24 -43 -15
-20 -21 -22 -31 -13 -10 10 -7 19 16 43 33 34 45 38 39 13z m618 -8 c76 -8
101 -20 78 -35 -27 -17 -112 -12 -148 10 -30 19 -36 48 -8 37 7 -3 42 -8 78
-12z m-5554 -26 c2 -17 -6 -37 -23 -58 -30 -35 -65 -42 -65 -12 0 75 80 138
88 70z m5445 -4 c71 -25 115 -35 160 -35 l62 -1 76 -87 c92 -106 124 -150 117
-158 -6 -5 -41 30 -102 103 -15 18 -50 49 -78 70 -45 32 -62 38 -125 44 -115
11 -233 56 -233 90 0 15 20 11 123 -26z m-1613 5 c-6 -11 -13 -20 -16 -20 -2
0 0 9 6 20 6 11 13 20 16 20 2 0 0 -9 -6 -20z m-2100 0 c-8 -5 -22 -9 -30 -9
-10 0 -8 3 5 9 27 12 43 12 25 0z m2768 -17 c32 -5 33 -7 27 -40 -15 -80 -14
-80 -96 -70 -41 5 -88 11 -105 13 l-32 4 10 43 c17 74 11 70 91 63 39 -4 87
-10 105 -13z m-2821 1 c-3 -3 -12 -4 -19 -1 -8 3 -5 6 6 6 11 1 17 -2 13 -5z
m1896 -31 c-7 -2 -21 -2 -30 0 -10 3 -4 5 12 5 17 0 24 -2 18 -5z m197 -23 c0
-5 -5 -10 -11 -10 -5 0 -7 5 -4 10 3 6 8 10 11 10 2 0 4 -4 4 -10z m1871 -37
c13 -16 12 -17 -3 -4 -10 7 -18 15 -18 17 0 8 8 3 21 -13z m-842 -59 c-13 -14
-32 -30 -42 -36 -16 -8 -17 -7 -8 11 12 21 49 51 65 51 5 0 -1 -12 -15 -26z
m-851 -36 c-5 -13 -11 -14 -70 -8 l-33 3 40 7 c62 11 67 11 63 -2z m2681 -19
c40 -18 43 -21 29 -35 -16 -17 -22 -17 -121 -8 -56 5 -67 9 -65 23 3 16 57 40
93 40 11 0 40 -8 64 -20z m-449 7 c0 -11 -19 -15 -25 -6 -3 5 1 10 9 10 9 0
16 -2 16 -4z m414 -65 c17 -6 16 -9 -9 -25 -35 -23 -111 -32 -131 -15 -13 10
-12 14 2 30 13 14 30 19 68 18 28 0 59 -4 70 -8z m-3482 -33 c3 -79 -19 -138
-52 -138 -23 0 -50 36 -50 67 0 13 -3 23 -8 23 -4 0 -36 -23 -71 -52 -50 -40
-70 -64 -92 -114 -16 -35 -29 -73 -29 -84 0 -12 -9 -24 -24 -30 -14 -5 -47
-25 -74 -45 -28 -19 -92 -55 -143 -80 l-94 -44 46 -1 c25 0 101 -3 169 -7
l122 -6 -3 46 c-2 26 -1 47 3 47 5 0 8 -4 8 -8 0 -5 21 -41 46 -80 35 -55 58
-79 102 -106 73 -43 149 -60 220 -46 74 14 106 33 135 82 26 44 40 60 100 116
l35 32 7 -28 c4 -18 -1 -45 -15 -77 -11 -26 -19 -49 -17 -51 2 -2 50 -24 107
-49 212 -93 584 -295 595 -324 3 -8 3 -12 -1 -9 -3 4 -26 -13 -51 -38 -25 -24
-49 -44 -54 -44 -5 0 -9 -7 -9 -16 0 -8 -4 -13 -8 -10 -5 3 -20 -6 -35 -20
-15 -13 -29 -24 -32 -24 -5 0 -86 -51 -95 -60 -3 -3 -17 -11 -32 -17 -16 -7
-28 -16 -28 -21 0 -5 -18 -15 -40 -22 -22 -7 -45 -19 -51 -27 -6 -7 -20 -13
-30 -13 -11 0 -19 -5 -19 -11 0 -5 -4 -8 -9 -5 -5 3 -14 -1 -21 -9 -7 -8 -18
-15 -24 -15 -6 0 -31 -10 -56 -22 -25 -12 -47 -22 -50 -23 -3 -1 -12 -5 -22
-9 -9 -4 -31 -9 -50 -10 -18 -2 -32 -8 -31 -13 1 -6 -11 -9 -27 -7 -17 2 -30
-1 -30 -7 0 -6 -4 -8 -9 -4 -6 3 -13 0 -18 -7 -4 -7 -15 -14 -23 -14 -29 -3
-83 -15 -92 -20 -5 -3 -21 -7 -36 -10 -15 -2 -38 -9 -52 -14 -14 -5 -42 -11
-62 -13 -21 -2 -41 -6 -44 -9 -3 -4 -17 -4 -30 -2 -13 2 -24 1 -24 -3 0 -5
-15 -9 -33 -9 -40 -2 -107 -12 -165 -25 -29 -6 -49 -6 -55 0 -6 6 -19 6 -36 0
-14 -5 -47 -8 -71 -6 -25 2 -57 1 -72 -4 -14 -4 -29 -4 -33 -1 -4 4 -52 8
-108 9 -56 1 -124 4 -152 8 -27 3 -66 7 -85 9 -19 2 -62 9 -94 15 -33 6 -62 9
-64 6 -3 -3 -11 0 -19 6 -7 6 -22 9 -33 6 -11 -3 -20 -2 -20 2 0 4 -10 7 -22
8 -12 1 -33 6 -47 12 -34 12 -84 25 -93 23 -5 -1 -8 2 -8 8 0 5 -7 10 -16 10
-20 0 -181 65 -299 121 -49 23 -93 42 -97 41 -5 -1 -8 2 -8 8 0 8 -34 34 -99
75 -9 6 -23 18 -32 28 -9 9 -20 17 -25 17 -10 0 -114 109 -114 120 0 4 -7 13
-15 20 -8 7 -13 16 -10 20 3 4 -2 13 -10 20 -8 7 -12 16 -9 21 3 5 0 9 -5 9
-6 0 -10 3 -10 8 1 4 0 9 -1 12 -4 11 -11 46 -13 65 -3 28 39 35 243 41 96 3
185 7 197 10 31 6 39 25 58 137 32 186 96 376 137 408 l21 16 -31 39 c-17 22
-56 57 -86 79 -30 21 -52 43 -50 47 7 10 30 -3 74 -41 19 -17 38 -31 43 -31 4
0 7 -6 7 -14 0 -8 35 -43 77 -78 42 -34 152 -134 245 -221 141 -132 172 -157
191 -152 12 4 60 21 107 38 78 29 83 32 55 38 -16 4 -57 7 -90 8 -102 2 -155
41 -294 215 -64 81 -85 118 -63 115 4 -1 9 0 12 1 3 1 14 3 25 5 44 7 78 16
113 30 53 20 199 55 257 61 28 2 70 9 95 14 25 5 52 9 60 8 36 -1 235 14 239
17 2 3 -2 12 -10 21 -13 16 -12 16 8 6 12 -7 24 -15 26 -20 3 -4 50 -7 105 -7
87 1 102 -2 109 -17 7 -15 18 -11 88 38 44 30 87 53 96 51 9 -3 23 -1 30 4 30
19 49 10 51 -23z m3110 -142 c4 -6 7 -29 7 -51 -1 -41 -3 -40 -14 8 -3 16 -20
42 -38 59 l-32 30 35 -17 c19 -10 38 -23 42 -29z m-4929 2 c8 -23 -12 -60 -30
-56 -20 4 -24 24 -11 51 10 20 34 23 41 5z m3658 -51 c-10 -9 -11 -8 -5 6 3
10 9 15 12 12 3 -3 0 -11 -7 -18z m1807 -24 c3 -20 -1 -21 -52 -20 -31 1 -56
3 -56 4 0 1 4 12 9 26 8 21 13 23 53 18 34 -5 44 -10 46 -28z m-459 -48 c-2
-46 2 -59 21 -80 13 -14 21 -27 18 -30 -3 -3 -20 11 -38 31 -28 33 -31 42 -26
77 13 77 28 78 25 2z m-3112 -12 c9 -24 -13 -36 -51 -29 -36 7 -45 23 -26 42
14 14 70 5 77 -13z m3533 -7 c0 -3 -4 -8 -10 -11 -5 -3 -10 -1 -10 4 0 6 5 11
10 11 6 0 10 -2 10 -4z m-5426 -217 c-39 -57 -81 -89 -115 -89 -16 0 -29 1
-29 3 0 11 48 66 53 60 4 -3 9 2 13 11 3 9 11 16 16 16 6 0 21 11 33 24 49 53
71 35 29 -25z m5536 -214 c0 -8 -7 -15 -15 -15 -16 0 -20 12 -8 23 11 12 23 8
23 -8z m-339 -348 c-15 -15 -30 1 -24 24 6 21 7 21 20 4 8 -12 9 -23 4 -28z
m-681 -8 c-35 -14 -209 -59 -228 -59 -33 0 1 13 105 40 111 29 172 38 123 19z
m-920 -74 c7 -9 10 -19 6 -22 -8 -9 -38 9 -44 25 -5 17 23 15 38 -3z m470 -17
c0 -5 -1 -8 -2 -8 -2 0 -39 -6 -83 -14 -127 -22 -241 -30 -249 -17 -4 6 -12 8
-18 5 -7 -5 -8 -2 -3 6 5 8 2 18 -8 25 -13 9 24 12 173 11 105 -1 190 -4 190
-8z m200 -93 c-19 -7 -42 -13 -50 -13 -8 0 1 6 20 13 19 7 42 13 50 13 8 0 -1
-6 -20 -13z m-100 -30 c-46 -18 -64 -17 -25 0 17 8 37 14 45 14 8 0 -1 -7 -20
-14z m-60 -19 c0 -6 -123 -46 -127 -42 -3 2 20 13 49 25 51 19 78 25 78 17z
m-200 -70 c0 -2 -9 -6 -20 -9 -11 -3 -18 -1 -14 4 5 9 34 13 34 5z"/>
<path d="M6329 2333 c-13 -16 -12 -17 4 -4 16 13 21 21 13 21 -2 0 -10 -8 -17
-17z"/>
<path d="M6397 2335 c-11 -7 -25 -11 -32 -9 -7 3 -16 0 -21 -7 -5 -9 -2 -10
10 -6 10 4 15 3 11 -3 -3 -5 -19 -7 -35 -5 -35 4 -78 -38 -156 -155 -63 -95
-66 -100 -59 -100 3 0 26 33 52 73 51 81 110 147 130 147 21 0 86 36 107 59
22 24 19 27 -7 6z"/>
<path d="M5807 1284 c-10 -14 -17 -32 -15 -42 3 -13 8 -9 22 16 22 42 17 58
-7 26z"/>
</g>
</svg>
