<?xml version="1.0" standalone="no"?>
<!DOCTYPE svg PUBLIC "-//W3C//DTD SVG 20010904//EN"
 "http://www.w3.org/TR/2001/REC-SVG-20010904/DTD/svg10.dtd">
<svg version="1.0" xmlns="http://www.w3.org/2000/svg"
 width="612.000000pt" height="612.000000pt" viewBox="0 0 612.000000 612.000000"
 preserveAspectRatio="xMidYMid meet">

<g transform="translate(0.000000,612.000000) scale(0.100000,-0.100000)"
fill="#000000" stroke="none">
<path d="M1618 4502 l-1398 -1397 0 -45 0 -45 1398 -1397 1397 -1398 45 0 45
0 1397 1398 1398 1397 0 45 0 45 -1398 1397 -1397 1398 -45 0 -45 0 -1397
-1398z m2714 -169 c818 -818 1229 -1236 1233 -1253 3 -15 2 -36 -3 -49 -4 -13
-255 -270 -558 -572 l-549 -550 -118 2 c-164 2 -164 2 -126 51 17 21 28 42 25
46 -4 3 -84 18 -179 32 l-172 26 127 68 c70 37 130 71 133 75 2 5 -19 23 -48
41 l-52 33 31 15 c34 16 44 44 44 128 0 31 6 46 26 65 37 35 109 146 132 204
11 28 25 76 32 108 l13 57 44 0 43 0 0 45 0 45 -40 0 c-36 0 -40 3 -40 25 0
31 -1 31 -97 0 -43 -14 -102 -25 -131 -25 -51 0 -53 1 -46 23 4 12 13 41 20
65 l13 42 -72 0 c-101 0 -186 -23 -304 -80 l-102 -50 -451 0 -450 0 0 63 0 62
129 150 129 150 83 20 83 20 133 190 c74 106 128 192 121 194 -6 2 -70 -58
-142 -133 l-131 -136 -129 -22 c-128 -21 -128 -22 -197 -75 -38 -30 -69 -51
-69 -46 0 4 18 67 40 138 32 104 40 146 40 208 l0 77 135 202 c93 139 131 206
124 213 -7 7 -15 3 -27 -12 -9 -11 -71 -85 -137 -163 -101 -120 -120 -138
-123 -119 -2 13 -13 103 -25 199 -19 153 -24 175 -41 178 -18 4 -18 -8 -15
-310 l4 -313 -25 -35 c-106 -150 -170 -231 -174 -219 -3 8 -30 102 -60 209
-30 107 -69 247 -86 310 -31 108 -32 121 -26 222 3 59 9 121 12 137 5 24 3 31
-9 31 -11 0 -22 -22 -37 -72 -35 -123 -26 -124 -119 16 -67 101 -88 126 -107
126 -22 0 -18 -9 58 -172 84 -179 95 -221 97 -370 l1 -46 -181 109 c-100 60
-184 109 -188 109 -12 0 -33 -43 -24 -49 5 -3 98 -82 206 -174 167 -143 198
-174 206 -205 31 -119 42 -164 39 -167 -2 -1 -76 27 -165 62 l-163 64 -104
-83 c-57 -46 -103 -84 -102 -85 1 -2 38 2 82 8 l79 11 205 -110 205 -110 3
-126 3 -126 -361 0 -360 0 0 -51 0 -50 355 7 355 7 -1 -134 c-1 -74 -4 -179
-8 -234 l-6 -99 -140 -63 c-77 -34 -144 -65 -150 -68 -5 -3 76 -3 181 0 l190
5 71 -55 c39 -30 75 -55 80 -55 4 0 28 27 51 58 l44 58 186 28 c103 15 189 29
191 32 6 5 17 -3 -151 103 l-148 93 0 151 c0 84 4 158 8 165 7 9 92 12 395 10
l386 -3 -51 -54 -51 -54 -86 7 -86 6 -48 -143 c-26 -78 -47 -148 -47 -155 0
-6 11 -14 25 -18 35 -9 31 -24 -16 -77 -67 -77 -202 -134 -408 -174 l-44 -8
48 -37 c47 -37 47 -37 24 -48 -13 -6 -142 -59 -287 -119 -236 -97 -268 -107
-303 -101 -24 5 -111 -2 -231 -18 l-193 -24 -585 586 c-321 322 -588 596 -593
608 -4 12 -5 34 -2 49 4 18 391 411 1229 1250 673 672 1232 1226 1242 1231 56
22 33 43 1306 -1229z m-322 -1325 c0 -7 -12 -48 -26 -91 -14 -43 -24 -80 -22
-82 2 -3 66 13 141 35 75 22 141 40 147 40 17 0 11 -87 -9 -146 -79 -223 -379
-427 -836 -569 -66 -21 -138 -50 -160 -64 -36 -24 -98 -94 -107 -121 -3 -11
-241 111 -253 129 -2 5 27 20 66 36 71 28 163 90 210 141 15 16 61 82 104 147
229 351 480 551 698 556 31 1 47 -3 47 -11z m-681 -324 c2 -2 -21 -43 -52 -91
-36 -57 -63 -89 -76 -91 -20 -3 -20 -2 5 65 15 37 31 83 37 101 10 32 13 33
46 27 20 -4 38 -9 40 -11z m738 -328 c-3 -7 -40 -18 -83 -24 -44 -7 -90 -15
-104 -18 -14 -4 3 8 37 25 33 17 81 49 105 70 l43 39 3 -40 c2 -22 1 -46 -1
-52z m171 -656 c-7 -21 -1124 -1132 -1148 -1141 -13 -6 -36 -7 -50 -4 -15 4
-239 220 -592 573 -313 312 -568 570 -568 574 0 5 531 8 1181 8 803 0 1180 -3
1177 -10z"/>
<path d="M4090 2790 c-11 -11 -20 -24 -20 -30 0 -5 9 -19 20 -30 11 -11 25
-20 30 -20 6 0 19 9 30 20 11 11 20 25 20 30 0 6 -9 19 -20 30 -11 11 -24 20
-30 20 -5 0 -19 -9 -30 -20z"/>
</g>
</svg>
