<?xml version="1.0" standalone="no"?>
<!DOCTYPE svg PUBLIC "-//W3C//DTD SVG 20010904//EN"
 "http://www.w3.org/TR/2001/REC-SVG-20010904/DTD/svg10.dtd">
<svg version="1.0" xmlns="http://www.w3.org/2000/svg"
 width="800.000000pt" height="800.000000pt" viewBox="0 0 800.000000 800.000000"
 preserveAspectRatio="xMidYMid meet">

<g transform="translate(0.000000,800.000000) scale(0.100000,-0.100000)"
fill="#000000" stroke="none">
<path d="M2040 5955 l-1955 -1955 1958 -1958 1957 -1957 1957 1957 1958 1958
-1955 1955 c-1075 1075 -1957 1955 -1960 1955 -3 0 -885 -880 -1960 -1955z
m3610 -310 l1645 -1645 -1648 -1648 -1647 -1647 -1647 1647 -1648 1648 1645
1645 c905 905 1647 1645 1650 1645 3 0 745 -740 1650 -1645z"/>
<path d="M3875 6015 c-227 -43 -399 -182 -412 -334 -3 -26 22 -225 57 -456 33
-225 97 -655 141 -955 56 -381 86 -558 100 -590 82 -185 327 -232 469 -90 69
69 72 82 165 711 47 321 110 748 140 948 30 199 55 386 55 415 -1 237 -366
417 -715 351z"/>
<path d="M3921 3234 c-217 -58 -358 -282 -323 -512 37 -239 234 -406 459 -389
130 10 250 81 324 190 126 189 100 448 -61 601 -113 108 -258 148 -399 110z"/>
</g>
</svg>
