<?xml version="1.0" standalone="no"?>
<!DOCTYPE svg PUBLIC "-//W3C//DTD SVG 20010904//EN"
 "http://www.w3.org/TR/2001/REC-SVG-20010904/DTD/svg10.dtd">
<svg version="1.0" xmlns="http://www.w3.org/2000/svg"
 width="800.000000pt" height="800.000000pt" viewBox="0 0 800.000000 800.000000"
 preserveAspectRatio="xMidYMid meet">

<g transform="translate(0.000000,800.000000) scale(0.100000,-0.100000)"
fill="#000000" stroke="none">
<path d="M2040 5955 l-1955 -1955 1958 -1958 1957 -1957 1957 1957 1958 1958
-1955 1955 c-1075 1075 -1957 1955 -1960 1955 -3 0 -885 -880 -1960 -1955z
m3610 -310 l1645 -1645 -1648 -1648 -1647 -1647 -1647 1647 -1648 1648 1645
1645 c905 905 1647 1645 1650 1645 3 0 745 -740 1650 -1645z"/>
<path d="M3888 6194 c-169 -26 -369 -109 -474 -196 -28 -24 -121 -108 -205
-188 -329 -309 -355 -343 -352 -462 3 -108 48 -219 150 -377 l54 -83 -12 -152
c-14 -176 -4 -231 56 -310 19 -25 33 -46 31 -46 -2 0 -56 25 -121 56 -135 64
-177 99 -270 224 -65 87 -110 126 -175 154 -54 22 -122 29 -167 17 -71 -19
-133 -108 -133 -191 0 -17 -14 -40 -41 -65 -71 -69 -81 -100 -77 -235 3 -111
4 -119 32 -154 60 -80 143 -84 293 -17 148 67 133 71 531 -128 l339 -170 7
-37 c4 -20 4 -40 -1 -44 -4 -4 -134 -67 -288 -140 -320 -152 -324 -153 -455
-104 -63 24 -91 28 -175 29 -87 0 -107 -3 -156 -26 -102 -48 -157 -132 -140
-212 17 -71 36 -91 157 -155 l88 -47 18 -90 c23 -111 49 -154 119 -189 67 -33
127 -34 194 -2 89 43 146 114 165 208 12 61 49 124 92 158 15 11 161 84 324
160 l296 140 57 -34 c66 -40 196 -95 300 -126 105 -32 161 -25 303 39 62 28
144 71 182 95 l69 43 106 -49 c58 -27 207 -100 331 -161 254 -127 278 -146
301 -254 17 -79 40 -123 89 -167 86 -78 174 -95 266 -52 81 38 103 76 134 229
l12 58 87 44 c134 67 179 134 152 226 -17 56 -54 94 -129 131 -55 27 -80 34
-147 36 -70 3 -95 -1 -195 -33 -78 -25 -125 -34 -146 -30 -32 6 -629 286 -646
303 -5 5 -4 13 4 19 7 6 174 93 371 193 l358 182 62 -5 c45 -3 86 -15 147 -43
103 -47 188 -54 237 -18 66 49 92 130 80 254 -6 72 -30 123 -79 171 -29 28
-40 49 -48 88 -23 123 -81 176 -190 175 -118 -1 -183 -44 -306 -204 -41 -54
-91 -109 -112 -123 -33 -23 -116 -64 -298 -147 l-62 -28 45 45 c25 24 57 70
71 101 24 52 27 68 26 167 0 61 -6 137 -12 169 l-12 59 59 91 c109 169 151
275 153 385 2 116 -28 158 -272 375 -80 72 -172 155 -205 185 -190 174 -347
256 -545 286 -114 18 -186 18 -302 -1z m367 -135 c158 -38 250 -97 500 -319
205 -182 312 -287 332 -324 20 -38 13 -110 -19 -191 l-23 -60 -5 85 c-7 99
-23 136 -101 229 l-52 62 -38 -37 c-22 -21 -39 -42 -39 -47 0 -5 21 -32 46
-61 85 -93 90 -136 44 -343 l-29 -132 20 -93 c10 -51 19 -131 19 -178 -1 -151
-33 -190 -285 -343 -180 -109 -195 -120 -224 -168 -16 -26 -21 -51 -21 -106 0
-87 -18 -113 -108 -161 -162 -86 -339 -76 -502 29 l-60 39 0 62 c0 89 -16 137
-59 178 -20 19 -109 78 -196 130 -179 106 -230 147 -256 205 -24 52 -25 179
-2 283 22 98 21 123 -11 265 -14 64 -26 134 -26 155 0 74 27 138 85 201 30 32
55 65 55 73 0 28 -31 58 -59 58 -36 0 -117 -83 -157 -161 -26 -49 -29 -63 -29
-161 0 -58 -3 -104 -7 -102 -15 10 -68 156 -74 207 -10 84 -10 84 346 423 164
156 202 186 288 228 194 97 440 125 647 75z m-1707 -1360 c33 -16 60 -44 111
-113 116 -156 145 -177 435 -312 l256 -119 0 -77 0 -78 -325 163 -326 162 -82
0 c-75 -1 -90 -4 -173 -43 -110 -50 -159 -55 -174 -16 -6 14 -10 55 -9 92 0
55 2 62 10 42 6 -13 15 -28 22 -32 19 -12 63 -9 75 5 5 6 12 75 14 152 4 171
14 195 80 195 23 0 62 -10 86 -21z m3159 13 c24 -15 33 -67 33 -191 0 -113 2
-130 19 -145 27 -25 72 -17 88 14 11 23 13 18 13 -43 0 -38 -5 -77 -10 -88
-17 -31 -70 -24 -172 23 -86 40 -99 43 -177 43 l-83 0 -334 -170 c-184 -93
-338 -171 -344 -173 -6 -2 -10 26 -10 75 l0 78 98 45 c251 114 469 223 508
255 23 19 74 77 112 128 75 99 91 116 137 140 31 17 102 22 122 9z m-2177
-586 c25 -16 48 -34 52 -40 4 -6 8 -42 8 -79 0 -43 6 -82 16 -103 50 -105 263
-203 439 -204 170 0 379 100 429 204 9 20 16 60 16 98 0 73 13 97 71 133 21
14 41 25 44 25 3 0 5 -67 5 -148 0 -140 -2 -151 -26 -200 -36 -72 -111 -152
-196 -208 -80 -54 -249 -131 -306 -140 -56 -9 -176 27 -311 92 -95 47 -125 67
-185 127 -39 40 -82 95 -96 122 -23 46 -25 63 -28 209 -3 129 -1 157 10 150 7
-4 33 -21 58 -38z m1386 -534 c397 -189 404 -192 469 -192 38 0 86 10 148 32
120 42 200 44 272 7 33 -17 53 -34 60 -53 12 -35 2 -51 -54 -84 l-43 -25 7 32
c13 61 -41 103 -88 69 -12 -9 -29 -69 -56 -202 -34 -161 -43 -193 -63 -207
-32 -24 -60 -28 -103 -13 -63 21 -96 62 -110 139 -12 66 -56 144 -110 193 -40
37 -113 77 -341 186 -159 76 -293 142 -298 146 -6 6 49 90 59 90 1 0 114 -53
251 -118z m-1458 58 c17 -21 32 -41 32 -43 0 -2 -127 -64 -281 -138 -210 -99
-293 -144 -330 -176 -53 -48 -103 -138 -114 -205 -18 -110 -139 -176 -210
-115 -24 20 -31 43 -62 197 -19 96 -41 185 -49 198 -33 51 -114 9 -98 -52 8
-32 0 -32 -51 -3 -76 43 -50 107 57 143 65 21 124 15 248 -26 152 -51 158 -50
510 118 162 77 300 141 305 141 6 0 25 -17 43 -39z"/>
<path d="M3328 4884 c-49 -26 -50 -104 -4 -197 56 -116 139 -177 238 -177 98
0 174 59 261 202 44 74 47 110 11 143 -41 38 -85 45 -289 45 -149 -1 -196 -4
-217 -16z"/>
<path d="M4285 4885 c-44 -16 -75 -47 -75 -76 0 -56 111 -219 179 -264 48 -32
125 -42 188 -24 93 26 191 160 201 275 4 46 1 56 -21 78 l-26 26 -203 0 c-149
-1 -214 -5 -243 -15z"/>
<path d="M3995 4438 c-41 -35 -67 -82 -85 -148 -6 -25 -23 -63 -37 -84 -36
-55 -42 -117 -14 -145 25 -25 111 -29 151 -6 33 19 91 19 116 0 29 -22 106
-19 138 6 33 26 35 75 5 113 -12 15 -37 68 -55 117 -38 103 -64 143 -104 164
-44 23 -76 18 -115 -17z"/>
</g>
</svg>
